<svg width="24" height="24" viewBox="0 0 24 24" fill="none" xmlns="http://www.w3.org/2000/svg">
<path d="M20.295 5.115C20.6844 4.72564 20.6844 4.09436 20.295 3.705V3.705C19.9056 3.31564 19.2744 3.31564 18.885 3.705L12 10.59L5.115 3.705C4.72564 3.31564 4.09436 3.31564 3.705 3.705V3.705C3.31564 4.09436 3.31564 4.72564 3.705 5.115L10.59 12L3.705 18.885C3.31564 19.2744 3.31564 19.9056 3.705 20.295V20.295C4.09436 20.6844 4.72564 20.6844 5.115 20.295L12 13.41L18.885 20.295C19.2744 20.6844 19.9056 20.6844 20.295 20.295V20.295C20.6844 19.9056 20.6844 19.2744 20.295 18.885L13.41 12L20.295 5.115Z" fill="#D9D9D9"/>
</svg>
